<?xml version="1.0" standalone="no"?>
<!DOCTYPE svg PUBLIC "-//W3C//DTD SVG 20010904//EN"
 "http://www.w3.org/TR/2001/REC-SVG-20010904/DTD/svg10.dtd">
<svg version="1.0" xmlns="http://www.w3.org/2000/svg"
 width="400.000000pt" height="400.000000pt" viewBox="0 0 400.000000 400.000000"
 preserveAspectRatio="xMidYMid meet">
<metadata>
Created by potrace 1.11, written by Peter Selinger 2001-2013
</metadata>
<g transform="translate(0.000000,400.000000) scale(0.100000,-0.100000)"
fill="#000000" stroke="none">
<path d="M1800 3989 c-174 -18 -439 -87 -590 -153 -434 -190 -782 -520 -995
-945 -115 -229 -184 -479 -206 -751 -29 -346 54 -736 229 -1073 33 -65 50 -87
61 -84 9 3 97 42 196 87 99 45 218 99 265 120 47 20 141 62 210 93 69 30 133
58 142 61 11 3 108 186 255 479 131 260 255 495 276 523 21 27 86 114 145 194
173 234 444 489 629 592 l49 27 95 -74 c52 -41 111 -89 132 -106 21 -17 93
-74 160 -126 67 -53 126 -99 130 -103 12 -11 -47 -178 -114 -318 -98 -208
-185 -336 -397 -592 -58 -68 -106 -130 -109 -136 -2 -7 -75 -72 -161 -146
-636 -540 -683 -582 -665 -591 10 -6 19 -11 21 -13 2 -1 -10 -76 -26 -166 -60
-324 -115 -643 -116 -667 -1 -28 11 -32 224 -78 114 -24 144 -27 350 -27 245
-1 312 8 530 65 298 79 575 230 810 442 356 320 578 743 646 1227 22 160 15
451 -15 605 -59 296 -154 530 -306 756 -334 494 -859 810 -1460 879 -102 11
-284 11 -395 -1z"/>
<path d="M2609 2792 c-6 -56 -3 -69 14 -64 21 5 21 7 1 26 -8 9 -11 16 -5 16
14 0 38 -38 46 -72 4 -16 11 -28 15 -28 16 0 -21 87 -46 110 -13 13 -25 18
-25 12z"/>
<path d="M2581 2744 c0 -11 3 -14 6 -6 3 7 2 16 -1 19 -3 4 -6 -2 -5 -13z"/>
<path d="M2546 2705 c-13 -20 -14 -25 -2 -25 7 0 16 11 18 25 3 14 4 25 3 25
-2 0 -10 -11 -19 -25z"/>
<path d="M2633 2723 c-15 -5 -18 -158 -4 -167 15 -10 34 80 26 121 -5 21 -8
41 -7 46 1 4 1 7 0 6 -2 0 -9 -3 -15 -6z m14 -90 c-3 -10 -5 -4 -5 12 0 17 2
24 5 18 2 -7 2 -21 0 -30z"/>
<path d="M2546 2655 c-3 -8 -1 -15 4 -15 6 0 10 7 10 15 0 8 -2 15 -4 15 -2 0
-6 -7 -10 -15z"/>
<path d="M2670 2615 c0 -20 -38 -95 -48 -95 -15 0 -36 19 -29 27 5 4 12 1 17
-7 5 -8 12 -11 16 -7 11 11 -3 20 -34 22 -25 1 -28 -2 -27 -27 2 -31 11 -45
22 -34 4 4 1 11 -7 16 -8 5 -11 13 -6 17 4 4 13 0 20 -10 19 -25 33 -21 53 16
33 61 42 86 32 92 -5 4 -9 -1 -9 -10z"/>
<path d="M2453 2580 c-30 -36 -38 -60 -23 -60 6 0 14 9 17 21 3 11 11 18 17
16 6 -3 11 8 12 24 1 16 1 29 0 28 -1 0 -11 -13 -23 -29z"/>
<path d="M2383 2495 c-10 -11 -6 -15 19 -24 37 -13 61 -13 33 0 -18 8 -17 8 5
6 14 -1 24 -8 23 -15 -2 -8 10 -12 35 -11 31 0 34 2 17 10 -16 7 -12 8 15 5
20 -2 46 2 60 10 22 13 22 14 3 9 -12 -3 -24 -1 -28 5 -3 5 -24 10 -47 10 -34
0 -39 -3 -34 -17 6 -17 5 -17 -8 0 -10 13 -21 16 -41 11 -15 -4 -30 -2 -34 4
-4 6 -10 5 -18 -3z"/>
<path d="M1880 1888 c-83 -77 -624 -601 -770 -746 -153 -153 -149 -152 75 13
71 52 133 95 138 95 5 0 6 -8 3 -17 -12 -46 -17 -83 -9 -82 4 0 24 21 44 47
34 45 409 526 518 665 29 37 51 67 49 67 -1 0 -23 -19 -48 -42z"/>
</g>
</svg>
